<?xml version="1.0" encoding="UTF-8" standalone="no"?><!DOCTYPE svg PUBLIC "-//W3C//DTD SVG 1.1//EN" "http://www.w3.org/Graphics/SVG/1.1/DTD/svg11.dtd"><svg width="100%" height="100%" viewBox="0 0 16 16" version="1.1" xmlns="http://www.w3.org/2000/svg" xmlns:xlink="http://www.w3.org/1999/xlink" xml:space="preserve" xmlns:serif="http://www.serif.com/" style="fill-rule:evenodd;clip-rule:evenodd;stroke-miterlimit:1.5;"><path d="M3.6,2.64l9.6,0l0,1.92l-0.48,0.72l0,5.28l0.48,0.72l0,1.92l-8.16,0l-2.4,-2.4l0,-7.2" style="fill:none;stroke:#000;stroke-width:0.2px;"/><path d="M13.56,10.562l0,2.998l-11.28,0l0,-11.28l11.28,0l0,2.048" style="fill:none;stroke:#000;stroke-width:0.2px;"/><path d="M13.08,7.92l0,2.64" style="fill:none;stroke:#000;stroke-width:0.2px;"/><path d="M13.56,5.28l0,5.28" style="fill:none;stroke:#000;stroke-width:0.2px;"/><path d="M14.04,5.28l0,1.44" style="fill:none;stroke:#000;stroke-width:0.2px;"/><path d="M5.28,1.92l8.64,0l0,2.64l0.48,0.72l0,5.28l-0.48,0.72l0,1.92l0.48,0.455l0,0.757l-0.48,0.468l-1.437,0l-0.724,-0.96l-9.839,0l0,-10.358" style="fill:none;stroke:#000;stroke-width:0.2px;"/><circle cx="2.28" cy="2.28" r="1.32" style="fill:none;stroke:#000;stroke-width:0.2px;"/><path d="M6,14.4l5.28,0" style="fill:none;stroke:#000;stroke-width:0.2px;"/><path d="M8.4,14.88l2.88,0" style="fill:none;stroke:#000;stroke-width:0.2px;"/><path d="M2.64,11.28l1.92,1.92l-1.92,-0l0,-1.92Z" style="fill:none;stroke:#000;stroke-width:0.2px;"/></svg>