<?xml version="1.0" encoding="UTF-8" standalone="no"?><!DOCTYPE svg PUBLIC "-//W3C//DTD SVG 1.1//EN" "http://www.w3.org/Graphics/SVG/1.1/DTD/svg11.dtd"><svg width="100%" height="100%" viewBox="0 0 180 156" version="1.1" xmlns="http://www.w3.org/2000/svg" xmlns:xlink="http://www.w3.org/1999/xlink" xml:space="preserve" xmlns:serif="http://www.serif.com/" style="fill-rule:evenodd;clip-rule:evenodd;stroke-miterlimit:10;"><g id="Layer-1" serif:id="Layer 1"><path d="M45,0.001l-45,77.941l45,77.943l90,-0l45,-77.943l-45,-77.941l-90,0Z" style="fill:#262261;fill-rule:nonzero;"/><g><clipPath id="_clip1"><path d="M45,0.001l-45,77.941l45,77.943l90,0l45,-77.943l-45,-77.941l-90,0Z" clip-rule="nonzero"/></clipPath><g clip-path="url(#_clip1)"><path d="M-34.127,93.252c-0,0 68.393,-65.856 113.409,-65.856c45.015,0 152.758,71.997 152.758,71.997c0,0 -111.497,-24.256 -146.41,-24.256c-34.914,0 -119.757,18.115 -119.757,18.115" style="fill:#323690;fill-rule:nonzero;"/><path d="M119.13,53.581l1.566,1.566l1.566,-1.567l-1.566,-1.566l-1.566,1.567Z" style="fill:#fff;"/><path d="M25.946,69.193l1.567,1.566l1.566,-1.566l-1.566,-1.567l-1.567,1.567Z" style="fill:#fff;"/><path d="M139.031,73.571l1.657,1.658l1.657,-1.656l-1.657,-1.658l-1.657,1.656Z" style="fill:#fff;"/><path d="M159.336,91.207l1.657,1.657l1.657,-1.657l-1.657,-1.657l-1.657,1.657Z" style="fill:#fff;"/><path d="M146.407,41.259l1.657,1.657l1.657,-1.657l-1.657,-1.657l-1.657,1.657Z" style="fill:#fff;"/><path d="M11.851,75.726l1.657,1.657l1.657,-1.658l-1.657,-1.656l-1.657,1.657Z" style="fill:#fff;"/><path d="M35.576,49.21l1.657,1.657l1.657,-1.657l-1.657,-1.657l-1.657,1.657Z" style="fill:#fff;"/><path d="M119.039,8.762l1.657,1.657l1.657,-1.657l-1.657,-1.657l-1.657,1.657Z" style="fill:#fff;"/><path d="M46.396,25.739l1.657,1.657l1.657,-1.657l-1.657,-1.657l-1.657,1.657Z" style="fill:#fff;"/><path d="M143.879,55.571l1.072,1.07l1.072,-1.072l-1.072,-1.071l-1.072,1.073Z" style="fill:#fff;"/><path d="M158.353,70.042l1.071,1.072l1.071,-1.071l-1.071,-1.072l-1.071,1.071Z" style="fill:#fff;"/><path d="M90.786,20.71l1.071,1.072l1.072,-1.071l-1.072,-1.072l-1.071,1.071Z" style="fill:#fff;"/><path d="M62.126,10.429l1.072,1.072l1.071,-1.071l-1.071,-1.072l-1.072,1.071Z" style="fill:#fff;"/><path d="M10.281,71.36l1.071,1.072l1.072,-1.072l-1.072,-1.072l-1.071,1.072Z" style="fill:#fff;"/><path d="M52.819,49.322l1.072,1.071l1.071,-1.072l-1.071,-1.071l-1.072,1.072Z" style="fill:#fff;"/><path d="M128.223,64.466l1.071,1.072l1.071,-1.071l-1.071,-1.072l-1.071,1.071Z" style="fill:#fff;"/><path d="M148.332,95.255l1.071,1.07l1.071,-1.072l-1.071,-1.07l-1.071,1.072Z" style="fill:#fff;"/><path d="M19.696,93.592l1.071,1.072l1.072,-1.072l-1.072,-1.071l-1.071,1.071Z" style="fill:#fff;"/><path d="M143.532,70.295l1.071,1.07l1.071,-1.072l-1.071,-1.071l-1.071,1.073Z" style="fill:#fff;"/><path d="M167.532,78.455l1.071,1.07l1.071,-1.072l-1.071,-1.07l-1.071,1.072Z" style="fill:#fff;"/><path d="M36.162,55.571l1.071,1.07l1.072,-1.073l-1.072,-1.07l-1.071,1.073Z" style="fill:#fff;"/><path d="M130.01,94.252c0,0 1.96,9.062 -0.27,9.652c-2.229,0.592 -2.35,-0.759 -2.35,-0.759c0,0 -5.22,8.515 -10.38,6.887c-6.89,-2.17 -3.529,-3.71 -10.45,-3.58c-4.199,0.08 -11.96,-1.46 -18.8,-3.26c-4.43,-1.169 -8.479,-2.45 -10.9,-3.45c-6.15,-2.55 -16.41,-16.849 -15.75,-28.219c0.66,-11.391 -0.96,-17.931 1,-20.221c0.25,-0.31 0.51,-0.619 0.76,-0.92c0.06,-0.08 0.12,-0.16 0.19,-0.22c0.26,-0.32 0.53,-0.619 0.79,-0.93c0.06,-0.07 0.13,-0.129 0.181,-0.2c0.329,-0.37 0.669,-0.719 1.009,-1.08c0.33,-0.36 0.68,-0.71 1.02,-1.05c0.34,-0.35 0.7,-0.68 1.06,-1.009c0.31,-0.29 0.61,-0.571 0.93,-0.85c0.04,-0.041 0.09,-0.081 0.14,-0.121c0.32,-0.27 0.64,-0.54 0.97,-0.81c0.18,-0.16 0.371,-0.299 0.57,-0.45c0.23,-0.18 0.46,-0.349 0.69,-0.53c0.02,-0.02 0.05,-0.029 0.07,-0.04c0.32,-0.239 0.62,-0.46 0.95,-0.67c0.6,-0.41 1.21,-0.79 1.82,-1.149c0.17,-0.09 0.32,-0.181 0.48,-0.271c0.25,-0.129 0.5,-0.27 0.76,-0.39c0.21,-0.11 0.42,-0.21 0.62,-0.31c0.65,-0.31 1.3,-0.59 1.97,-0.84c0.42,-0.149 0.84,-0.3 1.28,-0.419c0.22,-0.081 0.45,-0.141 0.68,-0.201c0.44,-0.13 0.89,-0.219 1.34,-0.319c6.351,-1.298 22.04,3.096 29.876,10.799c8.227,8.088 8.46,19.541 8.644,19.721c-0.65,-0.561 -2.54,-2.041 -4.469,-2.091c-0.101,-0.01 -0.191,-0.01 -0.281,-0.01c-2.41,0.11 -7.23,-7.1 -7.58,-7.609c0.071,0.529 0.91,6.889 -0.009,9.94c-0.96,3.179 10.16,15.9 10.16,15.9l15.719,1.769c-2.25,4.09 -2.44,7.31 -2.44,7.31" style="fill:#e9cea8;fill-rule:nonzero;"/><path d="M132.45,86.943l-15.72,-1.77c0,-0 -11.12,-12.72 -10.16,-15.9c0.92,-3.05 0.08,-9.41 0.01,-9.94c0.349,0.51 5.17,7.72 7.58,7.61c2.03,-0.09 4.07,1.51 4.75,2.1c0.16,0.14 0.25,0.23 0.25,0.23l0.01,0.01c8.219,8.26 14.32,15.79 13.28,17.66" style="fill:#a67f5f;fill-rule:nonzero;"/><path d="M73.26,64.015c0,0 1.733,8.557 10.12,8.557c8.385,0 14.861,-6.133 14.861,-8.557c0,-2.424 -4.354,-11.064 -10.482,-11.389c-6.13,-0.326 -13.185,1.182 -14.792,3.032c-1.609,1.848 0.293,8.357 0.293,8.357" style="fill:#caad7a;fill-rule:nonzero;"/><path d="M64.58,138.593c-0.67,8.71 -6.11,18.21 -8.89,22.55l-6.8,0.62l-19.76,1.779l2.04,-7.859l7.17,-27.66c0,0 -2.14,-17.481 1.85,-32.88l0.55,-0.92l0.06,4.04l1.45,-3.99l1.38,-3.821l-2.65,19.971l0.05,3.409l4.38,-7.37c3.08,-5.84 5.25,-23.01 8.14,-23.369c2.89,-0.36 11.93,43.75 11.03,55.5" style="fill:#bba171;fill-rule:nonzero;"/><path d="M95.707,41.882c0,0 10.714,-8.512 15.053,-10.953c4.339,-2.441 10.305,-13.018 12.475,-13.018c2.169,0 0.359,13.19 -2.939,20.155c-3.299,6.965 -10.03,11.256 -10.03,11.256l-14.559,-7.44Z" style="fill:#e9cea8;fill-rule:nonzero;"/><path d="M106.078,46.009c-0,-0 8.479,-13.289 11.19,-17.574c2.712,-4.285 4.882,-6.455 4.882,-6.455c-0,-0 -2.983,12.647 -5.695,16.087c-2.712,3.44 -6.19,7.942 -6.19,7.942l-4.187,-0Z" style="fill:#675741;fill-rule:nonzero;"/><path d="M74.712,57.507l12.324,-0c0,-0 2.841,1.356 3.384,2.983c0.542,1.627 -2.962,4.882 -7.854,4.882c-4.893,-0 -7.854,-7.865 -7.854,-7.865" style="fill:#040506;fill-rule:nonzero;"/><path d="M74.354,52.581c0,-0 4.026,-5.213 8.665,-5.422c4.639,-0.208 8.947,4.464 8.947,4.464c-0,0 -6.222,-2.014 -9.366,-1.286c-3.144,0.729 -8.246,2.244 -8.246,2.244" style="fill:#8c572c;fill-rule:nonzero;"/><path d="M64.58,138.593c-0.67,8.71 -6.11,18.21 -8.89,22.55c-0.96,1.519 -1.6,2.399 -1.6,2.399l-5.2,-1.779l-17.72,-6.08l-9.98,-3.42l6.74,-18.561l-1.37,1.561l3.42,-14.181l-4.25,1.63l5.42,-6.829l2.57,-5.301l-4.23,2.37l3.94,-5.149l2.61,-4.32l1.7,-3.67l-3.59,0.83l4.22,-3.46l1.593,-2.956l0.55,-0.92l-3.283,1.742l8.02,-13.416l3.411,1.47c0,0 1.999,0.349 4.889,-0.01c2.89,-0.36 11.93,43.75 11.03,55.5" style="fill:#a66835;fill-rule:nonzero;"/><path d="M86.017,60.183c-0,0.485 -0.394,0.879 -0.879,0.879c-0.485,0 -0.879,-0.394 -0.879,-0.879c-0,-0.485 0.394,-0.879 0.879,-0.879c0.485,0 0.879,0.394 0.879,0.879" style="fill:#fff;fill-rule:nonzero;"/><path d="M93.359,37.819l1.714,-3.638l-0.175,5.711l3.343,-3.065l0.458,5.427l2.963,-2.587l3.195,8.543l1.713,-6.413l2.37,8.763l2.016,-3.408l-0.376,3.598l2.58,-0.883c0,0 -2.634,6.713 -5.536,6.624c-2.902,-0.088 -1.531,0.119 -4.193,0.031c-2.663,-0.089 -8.692,-9.447 -11.574,-11.37c-2.881,-1.922 -16.178,0.146 -16.519,-2.162c0,0 -7.405,-1.303 -4.948,-2.467c2.456,-1.164 13.523,-6.342 13.523,-6.342l0.345,4.159l1.758,-3.466l1.742,3.882l1.954,-6.899l2.145,7.812l1.502,-1.85Z" style="fill:#a66835;fill-rule:nonzero;"/><path d="M61.401,64.015c0,0 1.627,-14.101 0,-17.355c-1.627,-3.255 4.068,-6.067 4.068,-8.593c0,-2.527 -1.085,-13.104 4.068,-20.968c5.153,-7.865 9.763,-12.476 12.204,-12.747c2.441,-0.271 5.153,8.407 2.712,16.543c-2.441,8.137 -6.78,12.204 -5.424,14.916c1.356,2.712 -4.317,10.849 -4.317,10.849l-13.311,17.355Z" style="fill:#e9cea8;fill-rule:nonzero;"/><path d="M78.758,10.861c3.797,-0 0,16.272 0,16.272l-7.322,18.876c0,-0 -2.712,-15.08 0,-22.13c2.712,-7.052 7.322,-13.018 7.322,-13.018" style="fill:#675741;fill-rule:nonzero;"/><path d="M115.546,56.743c0,0 -2.171,3.022 -1.432,5.015c0.74,1.992 4.796,7.285 4.796,7.285c0,0 0.331,-2.908 -1.516,-7.604l-1.848,-4.696Z" style="fill:#caad7a;fill-rule:nonzero;"/><path d="M43.526,101.063l-4.41,2.635l3.801,-6.082l2.054,-5.049l-3.404,1.025l3.252,-3.68l0.811,-3.754l1.526,-2.887l-2.867,0.542l-3.71,2.03l5.771,-7.38c0.91,-2.18 1.76,-4.11 2.53,-5.69l-2.43,0.01l4.54,-4.14c1.07,-2.14 2.32,-4.73 3.67,-7.44l-0.77,-1.02l2.82,-2.97c2.15,-4.12 4.47,-8.13 6.72,-10.96c-1.77,2.79 -1.68,14.24 -2.32,25.27c-0.66,11.37 9.6,25.67 15.75,28.22c2.42,1 6.47,2.28 10.9,3.45c-0.25,0.36 -0.49,0.769 -0.72,1.23c-0.41,0.82 -0.95,1.96 -1.57,3.34l0.55,3.68l-1.83,-0.82c-0.68,1.55 -1.4,3.26 -2.14,5.05l-0.68,7.56l-1.57,-1.93c-1.07,2.739 -2.08,5.489 -2.91,8l-1.86,9.51l-1.2,-1.47c-2.08,9.89 -3.67,22.409 -3.67,22.409l-14.47,1.391c2.69,-4.2 7.88,-13.25 8.81,-21.73l0.14,-2.74c-0,-1.11 -0.06,-2.39 -0.15,-3.8l-4.23,4.64l3.94,-8.91c-0.1,-0.96 -0.68,-4.58 -0.68,-4.58c-0.08,-0.6 -0.17,-1.21 -0.26,-1.83l-4.82,3.24l3.3,-9.641c-0.19,-1.199 -0.93,-7.859 -1.13,-8.889l-4.3,5.849l2.92,-12.359c-0.25,-1.13 -0.5,-2.24 -0.76,-3.3l-2.89,5l-1.968,-7.123l-0.062,-3.057l-3.62,6.28l-2.02,5.95l-1.01,-1.5l-2.87,12.19l-1.05,-3.41l-0.98,-1.15l-2.77,1.24l3.45,-6.5l0.846,-3.95Z" style="fill:#caad7a;fill-rule:nonzero;"/><path d="M127.57,93.252c-0,0 -0.16,9.19 -0.181,9.28" style="fill:none;fill-rule:nonzero;stroke:#3f3622;stroke-width:1px;"/><path d="M127.39,102.533c-0.71,2.43 -5.51,3.65 -10.659,1.21c-5,-2.359 -13.904,-9 -14.203,-9.489c0.309,0.319 10.692,5.949 16.083,7.309c0,-0 7.87,2.97 8.779,0.97Z" style="fill:#bbbdc0;fill-rule:nonzero;stroke:#3f3622;stroke-width:1px;"/><path d="M116.727,85.169c0,0 3.661,-6.645 8.949,-5.153c5.288,1.492 6.78,6.916 6.78,6.916l-4.881,7.322l-10.848,-9.085Z" style="fill:#675741;fill-rule:nonzero;"/><path d="M116.587,85.346c0,0 4.873,-1.355 7.454,1.627c2.58,2.983 2.309,6.238 2.309,6.238l-9.763,-7.865Z" style="fill:#040506;fill-rule:nonzero;"/><path d="M128.795,90.457c-0.655,0 0.813,-3.191 -1.221,-5.596c-2.034,-2.404 -6.508,-2.268 -6.508,-3.082c-0,-0.814 6.76,-0.885 7.228,-0.55c0.469,0.336 0.415,0.957 0.661,2.719c0.246,1.763 0.495,6.509 -0.16,6.509" style="fill:#3b281d;fill-rule:nonzero;"/><path d="M119.17,69.283l-0.01,-0.01c0,-0 -0.09,-0.09 -0.25,-0.23c0,-0 0.33,-2.91 -1.52,-7.6c-0.9,-2.3 -1.36,-3.47 -1.59,-4.07c-0.069,-0.18 -0.12,-0.31 -0.16,-0.4c-0.02,-0.05 -0.03,-0.08 -0.05,-0.11l0,-0.02c-0.01,-0.01 -0.01,-0.02 -0.01,-0.03c-0.01,-0.01 -0.01,-0.01 -0.01,-0.02l-0.02,-0.05c-0.84,-1.7 -1.88,-3.44 -3.2,-5.1c0.51,-1.01 0.81,-1.78 0.81,-1.78l-1.8,0.62l-0.78,0.27l0.1,-1l0.09,-0.77c1.6,-1.13 6.76,-5.08 9.53,-10.92c3.29,-6.96 5.1,-20.15 2.94,-20.15c-2.17,0 -8.14,10.58 -12.48,13.02c-2.94,1.65 -8.8,6.08 -12.279,8.78l-0.241,-2.89l-3.34,3.07l0.17,-5.71l-1.71,3.64l-1.5,1.85l-2.15,-7.82l-1.95,6.9l-1.74,-3.88l-1.76,3.47l-0.35,-4.16c-0,0 -2.12,0.99 -4.71,2.2c-0.03,-0.21 -0.09,-0.4 -0.17,-0.57c-1.36,-2.71 2.98,-6.78 5.42,-14.92c2.44,-8.13 -0.27,-16.81 -2.71,-16.54c-2.44,0.27 -7.05,4.88 -12.2,12.75c-5.16,7.86 -4.07,18.44 -4.07,20.96c-0,2.53 -5.7,5.34 -4.07,8.6c0.21,0.41 0.36,1 0.47,1.72c-1.75,2.55 -3.5,5.65 -5.16,8.83l-2.82,2.97l0.77,1.02c-1.35,2.71 -2.6,5.3 -3.67,7.44l-4.54,4.14l2.43,-0.01c-0.77,1.58 -1.62,3.51 -2.53,5.69l-5.77,7.381l3.2,-1.75l-6.55,10.96l3.28,-1.75l-0.55,0.919l-1.59,2.96l-4.22,3.46l3.59,-0.83l-1.7,3.67l-2.61,4.321l-3.94,5.149l4.23,-2.37l-2.57,5.301l-5.42,6.829l4.25,-1.63l-3.42,14.18l1.37,-1.56l-6.74,18.56l9.98,3.42l17.72,6.08l5.2,1.78c-0,-0 0.64,-0.88 1.6,-2.4l14.47,-1.39c-0,-0 1.59,-12.52 3.67,-22.409l1.2,1.469l1.86,-9.509c0.83,-2.511 1.84,-5.261 2.91,-8l1.57,1.929l0.68,-7.559c0.74,-1.79 1.46,-3.5 2.14,-5.051l1.83,0.82l-0.55,-3.68c0.62,-1.379 1.16,-2.52 1.57,-3.339c0.23,-0.461 0.47,-0.87 0.72,-1.231c6.84,1.8 14.6,3.34 18.8,3.26c6.921,-0.13 3.56,1.41 10.45,3.58c5.16,1.63 10.38,-6.89 10.38,-6.89c0,-0 0.12,1.35 2.35,0.76c2.23,-0.59 0.27,-9.65 0.27,-9.65c0,-0 0.19,-3.22 2.44,-7.31c1.04,-1.87 -5.06,-9.4 -13.28,-17.66Z" style="fill:none;fill-rule:nonzero;stroke:#231f20;stroke-width:1px;"/><path d="M87.76,103.193c-0,-0 -10.116,-2.553 -12.421,-3.8c-2.307,-1.247 -8.791,-10.268 -8.791,-10.268" style="fill:none;fill-rule:nonzero;stroke:#231f20;stroke-width:1px;"/><path d="M127.678,115.425l-15.196,-13.445l-13.867,11.922l11.922,-13.867l-13.445,-15.196l15.197,13.445l13.866,-11.923l-11.921,13.868l13.444,15.196Z" style="fill:#fff;fill-rule:nonzero;"/></g></g><g id="Layer-9" serif:id="Layer 9"><path d="M62.625,147.807l-13.68,-0c0.14,-4.78 2.54,-8.49 7.2,-11.13c2.28,-1.2 3.38,-2.33 3.3,-3.39c-0,-0.76 -0.325,-1.39 -0.975,-1.89c-0.65,-0.5 -1.495,-0.77 -2.535,-0.81c-1.88,0.14 -3.15,1.09 -3.81,2.85l-3.18,-0.93c0.52,-1.44 1.385,-2.655 2.595,-3.645c1.21,-0.99 2.625,-1.485 4.245,-1.485c1.9,-0 3.515,0.58 4.845,1.74c1.33,1.16 1.995,2.51 1.995,4.05c-0.06,2.54 -1.6,4.59 -4.62,6.15c-2.86,1.66 -4.57,3.41 -5.13,5.25l9.75,-0l-0,3.24Z" style="fill:#fff;fill-rule:nonzero;"/><path d="M73.335,148.167c-2.36,-0 -4.175,-0.895 -5.445,-2.685c-1.27,-1.79 -1.905,-4.365 -1.905,-7.725c-0,-3.28 0.635,-5.83 1.905,-7.65c1.27,-1.82 3.085,-2.73 5.445,-2.73c2.4,-0 4.225,0.91 5.475,2.73c1.25,1.82 1.875,4.37 1.875,7.65c-0,3.36 -0.625,5.935 -1.875,7.725c-1.25,1.79 -3.075,2.685 -5.475,2.685Zm-0,-17.61c-1.4,-0 -2.42,0.665 -3.06,1.995c-0.64,1.33 -0.97,3.045 -0.99,5.145c-0,2.36 0.315,4.15 0.945,5.37c0.63,1.22 1.665,1.82 3.105,1.8c1.52,-0.04 2.57,-0.67 3.15,-1.89c0.58,-1.22 0.89,-2.98 0.93,-5.28c-0.04,-2.24 -0.375,-3.97 -1.005,-5.19c-0.63,-1.22 -1.655,-1.87 -3.075,-1.95Z" style="fill:#fff;fill-rule:nonzero;"/><path d="M96.885,147.807l-13.68,-0c0.14,-4.78 2.54,-8.49 7.2,-11.13c2.28,-1.2 3.38,-2.33 3.3,-3.39c-0,-0.76 -0.325,-1.39 -0.975,-1.89c-0.65,-0.5 -1.495,-0.77 -2.535,-0.81c-1.88,0.14 -3.15,1.09 -3.81,2.85l-3.18,-0.93c0.52,-1.44 1.385,-2.655 2.595,-3.645c1.21,-0.99 2.625,-1.485 4.245,-1.485c1.9,-0 3.515,0.58 4.845,1.74c1.33,1.16 1.995,2.51 1.995,4.05c-0.06,2.54 -1.6,4.59 -4.62,6.15c-2.86,1.66 -4.57,3.41 -5.13,5.25l9.75,-0l-0,3.24Z" style="fill:#fff;fill-rule:nonzero;"/><path d="M114.255,140.307c-0,2 -0.815,3.81 -2.445,5.43c-1.63,1.62 -3.715,2.43 -6.255,2.43c-1.78,-0 -3.42,-0.38 -4.92,-1.14l1.83,-2.88c0.94,0.48 1.98,0.72 3.12,0.72c1.48,0.04 2.775,-0.44 3.885,-1.44c1.11,-1 1.665,-2.06 1.665,-3.18c0.02,-0.96 -0.305,-1.77 -0.975,-2.43c-0.67,-0.66 -1.515,-0.99 -2.535,-0.99c-1.3,-0.02 -2.46,0.57 -3.48,1.77l-2.85,-1.08l0.33,-9.81l11.55,-0l-0,3.18l-8.46,-0l-0.12,3.45c0.98,-0.52 1.98,-0.78 3,-0.78c1.9,0.04 3.485,0.69 4.755,1.95c1.27,1.26 1.905,2.86 1.905,4.8Z" style="fill:#fff;fill-rule:nonzero;"/><path d="M131.535,141.807c-0,1.62 -0.485,3.025 -1.455,4.215c-0.97,1.19 -2.385,1.785 -4.245,1.785l-7.92,-0l-0,-20.1l7.62,-0c1.58,-0 2.9,0.485 3.96,1.455c1.06,0.97 1.59,2.325 1.59,4.065c-0.02,2.02 -0.67,3.42 -1.95,4.2c1.6,0.9 2.4,2.36 2.4,4.38Zm-3.51,-8.34c-0,-0.74 -0.195,-1.34 -0.585,-1.8c-0.39,-0.46 -0.955,-0.69 -1.695,-0.69l-4.65,-0l-0,4.89l4.62,-0c0.68,-0 1.23,-0.255 1.65,-0.765c0.42,-0.51 0.64,-1.055 0.66,-1.635Zm0.24,8.43c-0.02,-0.74 -0.24,-1.365 -0.66,-1.875c-0.42,-0.51 -0.97,-0.775 -1.65,-0.795l-4.89,-0l-0,5.4l4.77,-0c0.74,-0 1.33,-0.28 1.77,-0.84c0.44,-0.56 0.66,-1.19 0.66,-1.89Z" style="fill:#fff;fill-rule:nonzero;"/></g></g></svg>